<mxfile host="app.diagrams.net" modified="2023-10-10T12:22:07.272Z" agent="Mozilla/5.0 (Windows NT 10.0; Win64; x64) AppleWebKit/537.36 (KHTML, like Gecko) Chrome/117.0.0.0 Safari/537.36" etag="IUjQUxGJQ7Lag9_zcvLO" version="22.0.4" type="device">
  <diagram name="Page-1" id="i3HhxeuykhMElsrleE7z">
    <mxGraphModel dx="1221" dy="622" grid="1" gridSize="10" guides="1" tooltips="1" connect="1" arrows="1" fold="1" page="1" pageScale="1" pageWidth="827" pageHeight="1169" math="0" shadow="0">
      <root>
        <mxCell id="0" />
        <mxCell id="1" parent="0" />
        <mxCell id="1zKuFVHiHz_m-FyEqZjY-2" value="" style="rounded=0;whiteSpace=wrap;html=1;fillColor=#e1d5e7;strokeColor=#9673a6;" vertex="1" parent="1">
          <mxGeometry x="150" y="120" width="520" height="340" as="geometry" />
        </mxCell>
        <mxCell id="xbzGzXEqZMn5h5vEzNwL-1" value="" style="rounded=0;whiteSpace=wrap;html=1;fillColor=#dae8fc;strokeColor=#6c8ebf;" parent="1" vertex="1">
          <mxGeometry x="160" y="158" width="500" height="210" as="geometry" />
        </mxCell>
        <mxCell id="xbzGzXEqZMn5h5vEzNwL-2" value="&lt;b&gt;length of phrase &amp;lt;Int 4b&amp;gt;&lt;/b&gt;" style="rounded=0;whiteSpace=wrap;html=1;fillColor=#dae8fc;strokeColor=#6c8ebf;" parent="1" vertex="1">
          <mxGeometry x="160" y="168" width="290" height="50" as="geometry" />
        </mxCell>
        <mxCell id="xbzGzXEqZMn5h5vEzNwL-3" value="&lt;b&gt;&lt;font style=&quot;font-size: 16px;&quot;&gt;...&lt;/font&gt;&lt;/b&gt;" style="rounded=0;whiteSpace=wrap;html=1;fillColor=#E1DDDA;strokeColor=#d6b656;" parent="1" vertex="1">
          <mxGeometry x="175" y="278" width="475" height="30" as="geometry" />
        </mxCell>
        <mxCell id="xbzGzXEqZMn5h5vEzNwL-4" value="" style="rounded=0;whiteSpace=wrap;html=1;fillColor=#d5e8d4;strokeColor=#82b366;" parent="1" vertex="1">
          <mxGeometry x="175" y="228" width="475" height="50" as="geometry" />
        </mxCell>
        <mxCell id="xbzGzXEqZMn5h5vEzNwL-5" value="&lt;b&gt;length &amp;lt;varint 1-4b&amp;gt;&lt;/b&gt;" style="rounded=0;whiteSpace=wrap;html=1;fillColor=#A6B5A5;strokeColor=#82b366;" parent="1" vertex="1">
          <mxGeometry x="175" y="228" width="165" height="40" as="geometry" />
        </mxCell>
        <mxCell id="xbzGzXEqZMn5h5vEzNwL-6" value="&lt;b&gt;value &amp;lt;string&amp;gt;&lt;/b&gt;" style="rounded=0;whiteSpace=wrap;html=1;fillColor=#d5e8d4;strokeColor=#82b366;" parent="1" vertex="1">
          <mxGeometry x="340" y="228" width="240" height="40" as="geometry" />
        </mxCell>
        <mxCell id="1zKuFVHiHz_m-FyEqZjY-1" value="&lt;b&gt;Phrase #1&lt;/b&gt;" style="text;html=1;strokeColor=none;fillColor=none;align=center;verticalAlign=middle;whiteSpace=wrap;rounded=0;" vertex="1" parent="1">
          <mxGeometry x="540.0046153846152" y="128.33" width="134.6153846153846" height="113.33333333333334" as="geometry" />
        </mxCell>
        <mxCell id="1zKuFVHiHz_m-FyEqZjY-3" value="&lt;b&gt;&lt;font style=&quot;font-size: 17px;&quot;&gt;Dictionary Stream&lt;/font&gt;&lt;/b&gt;" style="text;html=1;strokeColor=none;fillColor=none;align=center;verticalAlign=middle;whiteSpace=wrap;rounded=0;" vertex="1" parent="1">
          <mxGeometry x="315" y="128" width="190" height="30" as="geometry" />
        </mxCell>
        <mxCell id="1zKuFVHiHz_m-FyEqZjY-4" value="&lt;font style=&quot;font-size: 9px;&quot;&gt;&lt;b&gt;Dict #1&lt;/b&gt;&lt;/font&gt;" style="text;html=1;strokeColor=none;fillColor=none;align=center;verticalAlign=middle;whiteSpace=wrap;rounded=0;" vertex="1" parent="1">
          <mxGeometry x="590" y="233" width="60" height="30" as="geometry" />
        </mxCell>
        <mxCell id="1zKuFVHiHz_m-FyEqZjY-5" value="" style="rounded=0;whiteSpace=wrap;html=1;fillColor=#d5e8d4;strokeColor=#82b366;" vertex="1" parent="1">
          <mxGeometry x="175.5" y="309" width="475" height="50" as="geometry" />
        </mxCell>
        <mxCell id="1zKuFVHiHz_m-FyEqZjY-6" value="&lt;b&gt;length &amp;lt;varint 1-4b&amp;gt;&lt;/b&gt;" style="rounded=0;whiteSpace=wrap;html=1;fillColor=#A6B5A5;strokeColor=#82b366;" vertex="1" parent="1">
          <mxGeometry x="175.5" y="309" width="165" height="40" as="geometry" />
        </mxCell>
        <mxCell id="1zKuFVHiHz_m-FyEqZjY-7" value="&lt;b&gt;value &amp;lt;string&amp;gt;&lt;/b&gt;" style="rounded=0;whiteSpace=wrap;html=1;fillColor=#d5e8d4;strokeColor=#82b366;" vertex="1" parent="1">
          <mxGeometry x="339.5" y="309" width="240" height="40" as="geometry" />
        </mxCell>
        <mxCell id="1zKuFVHiHz_m-FyEqZjY-8" value="&lt;font style=&quot;font-size: 9px;&quot;&gt;&lt;b&gt;Dict #n&lt;/b&gt;&lt;/font&gt;" style="text;html=1;strokeColor=none;fillColor=none;align=center;verticalAlign=middle;whiteSpace=wrap;rounded=0;" vertex="1" parent="1">
          <mxGeometry x="589.5" y="314" width="60" height="30" as="geometry" />
        </mxCell>
        <mxCell id="1zKuFVHiHz_m-FyEqZjY-9" value="&lt;font size=&quot;1&quot; style=&quot;&quot;&gt;&lt;b style=&quot;font-size: 26px;&quot;&gt;...&lt;/b&gt;&lt;/font&gt;" style="rounded=0;whiteSpace=wrap;html=1;fillColor=#dae8fc;strokeColor=#6c8ebf;" vertex="1" parent="1">
          <mxGeometry x="162" y="388" width="500" height="60" as="geometry" />
        </mxCell>
        <mxCell id="1zKuFVHiHz_m-FyEqZjY-10" value="&lt;b style=&quot;border-color: var(--border-color);&quot;&gt;Phrase #n&lt;/b&gt;" style="text;html=1;strokeColor=none;fillColor=none;align=center;verticalAlign=middle;whiteSpace=wrap;rounded=0;" vertex="1" parent="1">
          <mxGeometry x="592" y="388" width="60" height="30" as="geometry" />
        </mxCell>
      </root>
    </mxGraphModel>
  </diagram>
</mxfile>
